<?xml version="1.0" standalone="no"?>
<!DOCTYPE svg PUBLIC "-//W3C//DTD SVG 20010904//EN"
 "http://www.w3.org/TR/2001/REC-SVG-20010904/DTD/svg10.dtd">
<svg version="1.0" xmlns="http://www.w3.org/2000/svg"
 width="960.000000pt" height="960.000000pt" viewBox="0 0 960.000000 960.000000"
 preserveAspectRatio="xMidYMid meet">

<g transform="translate(0.000000,960.000000) scale(0.100000,-0.100000)"
fill="#000000" stroke="none">
<path d="M0 4800 l0 -4800 4800 0 4800 0 0 4800 0 4800 -4800 0 -4800 0 0
-4800z m2370 1101 c14 0 171 2 350 5 281 4 334 3 390 -12 81 -20 91 -20 163 0
51 15 100 16 385 12 180 -3 350 -5 377 -4 89 3 1518 1 1575 -2 30 -1 393 -2
805 -2 472 1 764 -3 788 -9 25 -7 49 -6 75 1 55 15 1488 14 1550 -2 54 -13
112 -55 140 -101 12 -18 122 -445 262 -1011 l243 -980 -12 -60 c-8 -35 -25
-77 -41 -100 -46 -61 -419 -448 -461 -477 -66 -46 -123 -51 -489 -45 -184 3
-360 5 -390 4 -75 -2 -735 -2 -785 0 -22 1 -195 -1 -385 -4 -244 -4 -361 -2
-398 6 -42 9 -64 9 -105 -2 -39 -10 -136 -13 -377 -12 -179 0 -350 1 -380 2
-30 1 -390 -1 -800 -4 -554 -4 -759 -2 -800 7 -62 13 -117 48 -150 95 -23 35
-50 122 -50 167 0 20 -5 27 -20 27 -16 0 -20 -7 -20 -34 0 -19 -5 -58 -12 -88
-17 -75 -91 -149 -166 -166 -75 -17 -850 -17 -923 0 -72 17 -144 89 -177 176
-13 34 -27 62 -31 62 -4 0 -13 -28 -20 -62 -13 -65 -44 -115 -93 -149 -65 -47
-95 -48 -908 -49 -823 0 -834 1 -905 52 -31 22 -366 390 -432 473 -20 26 -36
62 -44 101 -12 58 -11 65 61 374 40 173 81 329 92 347 11 19 16 41 13 55 -4
14 54 280 140 653 156 673 153 663 228 718 18 14 50 29 72 35 31 8 1124 10
1665 3z"/>
<path d="M734 5783 c-12 -2 -33 -16 -46 -31 -22 -23 -43 -103 -162 -615 -75
-323 -136 -606 -136 -630 0 -23 7 -52 15 -63 13 -19 12 -22 -10 -32 -13 -6
-30 -24 -38 -39 -8 -15 -45 -158 -81 -316 -63 -270 -66 -291 -54 -328 9 -26
75 -108 202 -249 104 -116 202 -222 218 -235 l30 -25 806 0 c783 0 808 1 839
20 40 24 46 45 74 280 12 102 25 189 29 193 4 4 19 -23 35 -60 24 -61 73 -123
103 -134 6 -2 35 -60 64 -128 37 -86 62 -130 81 -145 28 -21 37 -21 473 -21
l444 0 32 32 c31 31 32 36 35 125 6 143 3 138 74 138 66 0 112 18 131 53 7 12
18 81 24 152 7 78 12 108 12 75 1 -30 14 -156 29 -280 27 -224 27 -224 59
-260 l32 -35 769 4 c641 3 773 6 796 17 24 13 30 13 49 -1 19 -13 72 -15 358
-15 347 0 398 5 424 41 14 20 14 20 39 -5 15 -15 41 -27 68 -31 24 -3 189 -5
365 -3 300 3 323 4 343 22 21 19 21 19 42 0 20 -18 41 -19 379 -19 l359 0 28
27 29 28 27 -28 27 -27 353 3 c193 2 359 5 369 8 9 3 117 110 241 239 194 201
226 239 231 272 6 31 -40 227 -228 983 -130 520 -244 961 -253 980 -32 62 -16
61 -838 58 -714 -3 -744 -4 -764 -22 -21 -19 -21 -19 -42 0 -20 18 -50 19
-780 22 -643 2 -763 0 -787 -12 -23 -12 -31 -12 -52 0 -21 11 -159 13 -780 14
-668 0 -758 -2 -778 -16 -20 -14 -24 -14 -44 0 -19 14 -72 16 -371 16 l-349 0
-34 -34 c-26 -26 -34 -43 -35 -73 0 -21 -4 -47 -8 -58 -7 -16 -10 -11 -16 25
-11 70 -31 107 -64 124 -25 14 -81 16 -370 16 -234 0 -348 -4 -365 -11 -20
-10 -29 -9 -42 2 -14 12 -146 14 -803 15 -432 1 -796 0 -807 -3z m1546 -132
c0 -10 -13 -112 -30 -226 -16 -114 -30 -211 -30 -216 0 -5 -20 -9 -45 -9 -32
0 -45 4 -45 14 0 8 11 91 25 186 14 95 25 178 25 186 0 12 -106 14 -710 14
-693 0 -710 0 -710 19 0 54 -51 51 766 51 731 0 754 -1 754 -19z m774 11 c4
-6 -102 -1173 -118 -1299 l-6 -43 100 0 c97 0 100 -1 100 -22 0 -47 -7 -48
-158 -41 l-142 6 5 31 c3 17 30 299 60 626 30 327 57 614 61 638 l5 42 -260 0
-261 0 0 28 c0 16 3 32 7 35 9 10 601 9 607 -1z m879 1 c2 -5 -6 -244 -19
-533 -13 -289 -23 -560 -23 -602 l-1 -78 -50 0 c-50 0 -50 0 -50 33 0 17 9
237 20 487 11 250 20 494 20 543 l0 87 -255 0 -255 0 0 28 c0 16 3 32 7 35 9
10 601 9 606 0z m1608 -15 c0 -13 6 -115 13 -228 7 -113 11 -208 9 -212 -2 -5
-26 -8 -52 -8 l-49 0 -6 53 c-3 28 -8 118 -12 200 l-7 147 -668 0 -669 0 0 28
c0 16 3 32 7 35 3 4 327 7 720 7 l713 0 1 -22z m1610 4 c5 -6 159 -989 159
-1014 0 -5 -25 -8 -55 -8 -30 0 -55 3 -55 8 -1 12 -133 852 -145 919 l-6 33
-667 2 -667 3 -3 35 -3 35 718 -3 c395 -2 721 -6 724 -10z m1844 -914 c126
-508 230 -931 233 -940 4 -16 -3 -18 -55 -18 l-60 0 -224 903 -224 902 -662 3
-661 2 -6 23 c-3 12 -6 28 -6 35 0 9 150 12 718 12 l718 0 229 -922z m-941
425 c2 -10 19 -90 36 -178 41 -211 34 -193 83 -197 38 -3 42 -6 45 -31 l3 -28
-97 3 -98 3 -43 210 c-23 116 -42 216 -43 223 0 8 17 12 54 12 43 0 56 -4 60
-17z m-6769 -60 c-3 -21 -9 -48 -12 -60 l-5 -23 461 0 c254 0 461 -3 461 -7 0
-5 -39 -286 -87 -625 l-87 -618 -43 0 c-35 0 -43 3 -43 19 0 10 36 273 80 584
44 310 80 569 80 576 0 8 -123 11 -461 11 l-461 0 5 23 c3 12 11 52 18 90 l12
67 45 0 44 0 -7 -37z m3455 -23 l0 -60 418 0 419 0 6 -112 c4 -62 10 -177 13
-255 l7 -143 -51 0 c-29 0 -53 1 -53 3 -1 1 -7 98 -14 215 -6 117 -15 216 -19
220 -4 4 -192 8 -417 10 l-409 3 0 89 0 90 50 0 50 0 0 -60z m1654 34 c3 -9 6
-31 6 -50 0 -34 1 -34 44 -34 45 0 56 -10 56 -51 0 -17 -8 -19 -99 -19 l-98 0
-7 61 c-11 112 -13 109 43 109 35 0 51 -4 55 -16z m756 -554 c0 -5 39 -11 87
-12 l88 -3 52 -340 c28 -187 54 -359 58 -382 l6 -43 -55 0 -55 0 -6 43 c-4 23
-28 179 -53 347 l-47 305 -86 3 -87 3 -6 31 c-11 57 -10 58 49 58 30 0 55 -4
55 -10z m-2410 -175 l0 -65 438 -2 437 -3 12 -195 c6 -107 12 -230 12 -272 l1
-78 -49 0 -50 0 -5 43 c-3 23 -8 98 -11 167 -3 69 -8 158 -11 198 l-6 72 -434
0 -434 0 0 100 0 100 50 0 50 0 0 -65z m1720 36 c0 -10 13 -148 30 -307 16
-159 30 -301 30 -316 0 -27 -2 -28 -50 -28 -59 0 -50 -34 -85 320 -14 140 -28
276 -32 303 l-6 47 57 0 c48 0 56 -3 56 -19z m-2736 -163 c-8 -174 -6 -168
-59 -168 l-45 0 0 38 c0 22 3 87 7 145 l6 107 48 0 49 0 -6 -122z m-2399 25
c-4 -16 -7 -29 -8 -29 -1 -1 -199 -4 -440 -6 -434 -3 -438 -3 -433 17 3 11 6
26 6 33 0 9 95 12 441 12 l441 0 -7 -27z m6949 -255 c25 -128 46 -236 46 -240
0 -5 -25 -8 -55 -8 -48 0 -55 3 -60 23 -3 12 -25 120 -49 240 l-43 217 57 0
57 0 47 -232z m-4798 -85 c-3 -42 -6 -98 -6 -125 l0 -48 -51 0 -52 0 6 68 c4
37 7 93 7 125 l0 57 51 0 52 0 -7 -77z"/>
</g>
</svg>
